<?xml version="1.0" encoding="utf-8"?>
<!-- Generator: Adobe Illustrator 17.1.0, SVG Export Plug-In . SVG Version: 6.00 Build 0)  -->
<!DOCTYPE svg PUBLIC "-//W3C//DTD SVG 1.1//EN" "http://www.w3.org/Graphics/SVG/1.1/DTD/svg11.dtd">
<svg version="1.1" id="Layer_1" xmlns="http://www.w3.org/2000/svg" xmlns:xlink="http://www.w3.org/1999/xlink" x="0px" y="0px"
	 viewBox="0 0 257.5 31.667" enable-background="new 0 0 257.5 31.667" xml:space="preserve">
<path fill="#F4792A" d="M2.76,15.782c0,3.941-0.468,7.773-1.346,11.446l15.659-11.446L1.519,4.771
	C2.331,8.311,2.76,11.996,2.76,15.782z"/>
<g>
	<path d="M31.274,10.945c0.162-0.432,0.234-0.504,0.468-0.504c0.234,0,0.306,0.09,0.468,0.504l2.665,7.364l3.115-7.544
		c0.216-0.486,0.216-0.486,0.738-0.486h0.576c0.486,0,0.648,0.09,0.648,0.36c0,0.108-0.036,0.216-0.126,0.432l-4.538,10.821
		c-0.18,0.414-0.252,0.485-0.468,0.485c-0.234,0-0.306-0.09-0.468-0.521l-2.647-7.31l-2.755,7.31
		c-0.162,0.414-0.234,0.504-0.468,0.504c-0.216,0-0.306-0.09-0.468-0.486l-4.304-10.803c-0.108-0.27-0.126-0.324-0.126-0.432
		s0.108-0.27,0.216-0.306c0.09-0.054,0.126-0.054,0.45-0.054h0.576c0.486,0,0.54,0.036,0.666,0.342l0.054,0.162l2.935,7.526
		L31.274,10.945z"/>
	<path d="M53.127,16.293c0,3.457-2.827,6.229-6.338,6.229c-1.729,0-3.511-0.811-4.699-2.125c-1.008-1.116-1.513-2.521-1.513-4.159
		c0-3.385,2.863-6.194,6.302-6.194C50.319,10.045,53.127,12.854,53.127,16.293z M42.396,16.401c0,2.413,2.017,4.411,4.466,4.411
		c2.466,0,4.447-1.998,4.447-4.519c0-2.575-1.927-4.538-4.465-4.538C44.304,11.755,42.396,13.754,42.396,16.401z"/>
	<path d="M62.557,21.442c0.18,0.233,0.234,0.359,0.234,0.468c0,0.271-0.18,0.378-0.648,0.378h-0.702c-0.486,0-0.486,0-0.756-0.378
		l-3.151-4.537H57.21v4.249c0,0.414,0,0.45-0.108,0.559c-0.126,0.107-0.162,0.107-0.558,0.107h-0.486c-0.396,0-0.432,0-0.558-0.107
		c-0.108-0.108-0.108-0.145-0.108-0.559V10.945c0-0.612,0.054-0.667,0.666-0.667h1.458c1.549,0,2.413,0.198,3.169,0.702
		c0.882,0.594,1.44,1.675,1.44,2.827c0,1.674-1.062,3.025-2.665,3.367L62.557,21.442z M57.786,15.789
		c0.811,0,1.405-0.144,1.819-0.432c0.468-0.324,0.756-0.9,0.756-1.53c0-0.576-0.27-1.117-0.702-1.422
		c-0.432-0.288-0.954-0.414-1.8-0.414H57.21v3.799H57.786z"/>
	<path d="M69.612,20.578c0.415,0,0.45,0,0.559,0.107c0.108,0.126,0.108,0.162,0.108,0.559v0.378c0,0.396,0,0.433-0.108,0.559
		c-0.108,0.107-0.144,0.107-0.559,0.107h-4.015c-0.612,0-0.666-0.054-0.666-0.666V10.945c0-0.414,0-0.45,0.108-0.558
		c0.126-0.108,0.162-0.108,0.558-0.108h0.486c0.396,0,0.432,0,0.558,0.108c0.108,0.108,0.108,0.144,0.108,0.558v9.633H69.612z"/>
	<path d="M71.987,10.945c0-0.612,0.054-0.667,0.666-0.667h1.854c2.071,0,3.277,0.324,4.448,1.17
		c1.494,1.099,2.323,2.809,2.323,4.826c0,2.053-0.829,3.727-2.413,4.861c-1.206,0.883-2.25,1.152-4.393,1.152h-1.819
		c-0.612,0-0.666-0.054-0.666-0.666V10.945z M74.616,20.578c1.458,0,2.358-0.252,3.205-0.864c1.044-0.774,1.638-2.017,1.638-3.421
		c0-1.422-0.612-2.701-1.638-3.457c-0.792-0.594-1.747-0.846-3.205-0.846h-0.811v8.588H74.616z"/>
	<path d="M89.952,19.372l-1.116,2.449l-0.072,0.162c-0.126,0.288-0.18,0.306-0.666,0.306h-0.541c-0.486,0-0.666-0.09-0.666-0.36
		c0-0.126,0.018-0.144,0.144-0.449l5.096-10.929c0.18-0.396,0.252-0.468,0.468-0.468c0.216,0,0.288,0.072,0.468,0.468l4.916,10.947
		c0.126,0.288,0.144,0.306,0.144,0.432c0,0.108-0.108,0.271-0.216,0.307c-0.09,0.054-0.126,0.054-0.45,0.054h-0.576
		c-0.541,0-0.541,0-0.738-0.486l-1.062-2.43H89.952z M92.581,13.592l-1.873,4.069h3.655L92.581,13.592z"/>
	<path d="M108.584,10.945c0-0.414,0-0.45,0.108-0.558c0.126-0.108,0.162-0.108,0.558-0.108h0.486c0.396,0,0.432,0,0.558,0.108
		c0.108,0.108,0.108,0.144,0.108,0.558v10.839c0,0.504-0.108,0.666-0.396,0.666c-0.144,0-0.216-0.054-0.468-0.324l-7.887-8.246
		v7.742c0,0.414,0,0.45-0.108,0.559c-0.126,0.107-0.162,0.107-0.558,0.107H100.5c-0.396,0-0.432,0-0.558-0.107
		c-0.108-0.108-0.108-0.145-0.108-0.559V10.711c0-0.504,0.108-0.666,0.396-0.666c0.144,0,0.216,0.054,0.468,0.324l7.886,8.247
		V10.945z"/>
	<path d="M115.098,21.622c0,0.414,0,0.45-0.108,0.559c-0.126,0.107-0.162,0.107-0.558,0.107h-0.486c-0.396,0-0.432,0-0.558-0.107
		c-0.108-0.108-0.108-0.145-0.108-0.559V10.945c0-0.414,0-0.45,0.108-0.558c0.126-0.108,0.162-0.108,0.558-0.108h0.486
		c0.396,0,0.432,0,0.558,0.108c0.108,0.108,0.108,0.144,0.108,0.558V21.622z"/>
	<path d="M127.826,10.765c0.18-0.396,0.27-0.486,0.468-0.486c0.271,0,0.36,0.126,0.45,0.612l1.873,10.677
		c0.018,0.162,0.036,0.27,0.036,0.342c0,0.288-0.162,0.378-0.648,0.378h-0.522c-0.576,0-0.612-0.018-0.702-0.594l-1.063-6.644
		l-3.061,6.751c-0.18,0.396-0.271,0.469-0.486,0.469s-0.288-0.09-0.468-0.469l-2.989-6.77l-1.188,6.662
		c-0.09,0.576-0.126,0.594-0.702,0.594h-0.522c-0.504,0-0.648-0.09-0.648-0.378c0-0.072,0.018-0.216,0.054-0.36l2.088-10.677
		c0.072-0.468,0.18-0.594,0.432-0.594c0.216,0,0.288,0.072,0.468,0.486l3.511,7.94L127.826,10.765z"/>
	<path d="M135.258,19.372l-1.116,2.449l-0.072,0.162c-0.126,0.288-0.18,0.306-0.666,0.306h-0.541c-0.486,0-0.666-0.09-0.666-0.36
		c0-0.126,0.018-0.144,0.144-0.449l5.096-10.929c0.18-0.396,0.252-0.468,0.468-0.468c0.216,0,0.288,0.072,0.468,0.468l4.916,10.947
		c0.126,0.288,0.144,0.306,0.144,0.432c0,0.108-0.108,0.271-0.216,0.307c-0.09,0.054-0.126,0.054-0.45,0.054h-0.576
		c-0.541,0-0.541,0-0.738-0.486l-1.062-2.43H135.258z M137.887,13.592l-1.873,4.069h3.655L137.887,13.592z"/>
	<path d="M149.82,20.578c0.415,0,0.45,0,0.559,0.107c0.108,0.126,0.108,0.162,0.108,0.559v0.378c0,0.396,0,0.433-0.108,0.559
		c-0.108,0.107-0.144,0.107-0.559,0.107h-4.015c-0.612,0-0.666-0.054-0.666-0.666V10.945c0-0.414,0-0.45,0.108-0.558
		c0.126-0.108,0.162-0.108,0.558-0.108h0.486c0.396,0,0.432,0,0.558,0.108c0.108,0.108,0.108,0.144,0.108,0.558v9.633H149.82z"/>
	<path d="M158.514,21.622c0,0.414,0,0.45-0.108,0.559c-0.126,0.107-0.162,0.107-0.558,0.107h-0.486c-0.396,0-0.432,0-0.558-0.107
		c-0.108-0.108-0.108-0.145-0.108-0.559V10.945c0-0.612,0.054-0.667,0.666-0.667h1.387c1.836,0,2.593,0.18,3.367,0.756
		c0.811,0.63,1.314,1.71,1.314,2.809c0,0.972-0.396,1.926-1.044,2.539c-0.702,0.684-1.71,1.026-3.024,1.026h-0.847V21.622z
		 M159.18,15.735c0.936,0,1.476-0.145,1.891-0.486c0.378-0.324,0.612-0.864,0.612-1.44s-0.252-1.116-0.666-1.422
		c-0.432-0.306-0.972-0.432-1.909-0.432h-0.594v3.781H159.18z"/>
	<path d="M172.447,21.442c0.18,0.233,0.234,0.359,0.234,0.468c0,0.271-0.18,0.378-0.648,0.378h-0.702c-0.486,0-0.486,0-0.756-0.378
		l-3.151-4.537H167.1v4.249c0,0.414,0,0.45-0.108,0.559c-0.126,0.107-0.162,0.107-0.558,0.107h-0.486c-0.396,0-0.432,0-0.558-0.107
		c-0.108-0.108-0.108-0.145-0.108-0.559V10.945c0-0.612,0.054-0.667,0.666-0.667h1.458c1.548,0,2.413,0.198,3.169,0.702
		c0.882,0.594,1.44,1.675,1.44,2.827c0,1.674-1.062,3.025-2.665,3.367L172.447,21.442z M167.676,15.789
		c0.811,0,1.405-0.144,1.819-0.432c0.468-0.324,0.756-0.9,0.756-1.53c0-0.576-0.271-1.117-0.703-1.422
		c-0.432-0.288-0.954-0.414-1.8-0.414H167.1v3.799H167.676z"/>
	<path d="M186.579,16.293c0,3.457-2.827,6.229-6.338,6.229c-1.729,0-3.511-0.811-4.699-2.125c-1.008-1.116-1.513-2.521-1.513-4.159
		c0-3.385,2.863-6.194,6.302-6.194C183.771,10.045,186.579,12.854,186.579,16.293z M175.848,16.401c0,2.413,2.017,4.411,4.466,4.411
		c2.466,0,4.447-1.998,4.447-4.519c0-2.575-1.927-4.538-4.465-4.538C177.757,11.755,175.848,13.754,175.848,16.401z"/>
	<path d="M191.634,21.622c0,0.414,0,0.45-0.108,0.559c-0.126,0.107-0.162,0.107-0.558,0.107h-0.486c-0.396,0-0.432,0-0.558-0.107
		c-0.108-0.108-0.108-0.145-0.108-0.559V11.99h-2.089c-0.414,0-0.45,0-0.558-0.108c-0.108-0.126-0.108-0.162-0.108-0.558v-0.378
		c0-0.396,0-0.432,0.108-0.558c0.108-0.108,0.144-0.108,0.558-0.108h5.996c0.415,0,0.45,0,0.559,0.108
		c0.108,0.126,0.108,0.162,0.108,0.558v0.378c0,0.396,0,0.432-0.108,0.558c-0.108,0.108-0.144,0.108-0.559,0.108h-2.088V21.622z"/>
	<path d="M197.825,14.871h3.998c0.414,0,0.45,0,0.558,0.108c0.108,0.126,0.108,0.162,0.108,0.558v0.378c0,0.396,0,0.432-0.108,0.558
		c-0.108,0.108-0.144,0.108-0.558,0.108h-3.998v3.997h4.142c0.414,0,0.45,0,0.558,0.107c0.108,0.126,0.108,0.162,0.108,0.559v0.378
		c0,0.612-0.054,0.666-0.666,0.666h-5.294c-0.612,0-0.666-0.054-0.666-0.666V10.945c0-0.612,0.054-0.667,0.666-0.667h5.294
		c0.414,0,0.45,0,0.558,0.108c0.108,0.126,0.108,0.162,0.108,0.558v0.378c0,0.612-0.054,0.667-0.666,0.667h-4.142V14.871z"/>
	<path d="M213.758,12.007c0,0.486-0.09,0.667-0.324,0.667c-0.126,0-0.126,0-0.9-0.414c-0.667-0.342-1.278-0.504-1.98-0.504
		c-2.503,0-4.448,1.999-4.448,4.573c0,2.503,1.927,4.483,4.394,4.483c1.008,0,1.639-0.216,2.647-0.9
		c0.126-0.072,0.216-0.108,0.288-0.108c0.234,0,0.324,0.198,0.324,0.684v0.648c0,0.396-0.018,0.45-0.126,0.54
		c-0.09,0.091-0.432,0.271-0.828,0.414c-0.702,0.288-1.513,0.433-2.305,0.433c-3.439,0-6.212-2.754-6.212-6.176
		c0-3.493,2.827-6.302,6.338-6.302c1.081,0,2.557,0.414,3.007,0.828c0.108,0.108,0.126,0.144,0.126,0.558V12.007z"/>
	<path d="M219.642,21.622c0,0.414,0,0.45-0.108,0.559c-0.126,0.107-0.162,0.107-0.558,0.107h-0.486c-0.396,0-0.432,0-0.558-0.107
		c-0.108-0.108-0.108-0.145-0.108-0.559V11.99h-2.089c-0.414,0-0.45,0-0.558-0.108c-0.108-0.126-0.108-0.162-0.108-0.558v-0.378
		c0-0.396,0-0.432,0.108-0.558c0.108-0.108,0.144-0.108,0.558-0.108h5.996c0.414,0,0.45,0,0.558,0.108
		c0.108,0.126,0.108,0.162,0.108,0.558v0.378c0,0.396,0,0.432-0.108,0.558c-0.108,0.108-0.144,0.108-0.558,0.108h-2.089V21.622z"/>
	<path d="M225.833,21.622c0,0.414,0,0.45-0.108,0.559c-0.126,0.107-0.162,0.107-0.558,0.107h-0.486c-0.396,0-0.432,0-0.558-0.107
		c-0.108-0.108-0.108-0.145-0.108-0.559V10.945c0-0.414,0-0.45,0.108-0.558c0.126-0.108,0.162-0.108,0.558-0.108h0.486
		c0.396,0,0.432,0,0.558,0.108c0.108,0.108,0.108,0.144,0.108,0.558V21.622z"/>
	<path d="M240.668,16.293c0,3.457-2.827,6.229-6.338,6.229c-1.729,0-3.511-0.811-4.699-2.125c-1.008-1.116-1.513-2.521-1.513-4.159
		c0-3.385,2.863-6.194,6.302-6.194S240.668,12.854,240.668,16.293z M229.937,16.401c0,2.413,2.017,4.411,4.465,4.411
		c2.467,0,4.448-1.998,4.448-4.519c0-2.575-1.927-4.538-4.465-4.538C231.845,11.755,229.937,13.754,229.937,16.401z"/>
	<path d="M251.682,10.945c0-0.414,0-0.45,0.108-0.558c0.126-0.108,0.162-0.108,0.559-0.108h0.486c0.396,0,0.432,0,0.558,0.108
		c0.108,0.108,0.108,0.144,0.108,0.558v10.839c0,0.504-0.108,0.666-0.396,0.666c-0.144,0-0.216-0.054-0.468-0.324l-7.887-8.246
		v7.742c0,0.414,0,0.45-0.108,0.559c-0.126,0.107-0.162,0.107-0.558,0.107h-0.486c-0.396,0-0.432,0-0.558-0.107
		c-0.108-0.108-0.108-0.145-0.108-0.559V10.711c0-0.504,0.108-0.666,0.396-0.666c0.144,0,0.216,0.054,0.468,0.324l7.886,8.247
		V10.945z"/>
</g>
</svg>
